<?xml version="1.0" encoding="UTF-8" standalone="no"?>
<svg
   xmlns="http://www.w3.org/2000/svg"
   width="179"
   height="100"
   viewBox="0 0 179 96"
   version="1.1"
   id="svg73"
>
  <defs id="defs4">
    <filter id="darkenAndDesaturate">
      <feColorMatrix
        type="matrix" result="darkened"
        values=".4   0   0   0   0
             0  .4   0   0   0
             0   0  .4   0   0
             0   0   0   1   0 "/>
      <feColorMatrix
        type="saturate" result="desaturated"
        values="0.9" />
    </filter>
    <style id="style2">
      .pug-hair-dark{
        fill:{{(content.field_pug_hair|field_value)|default('#d8b17f')}};
        filter:url(#darkenAndDesaturate);
      }
      .pug-hair{
        fill:{{(content.field_pug_hair|field_value)|default('#d8b17f')}};
      }
      .pug-ears-nose-eyes{
        fill:{{(content.field_pug_face|field_value)|default('#5b3c1d')}};
      }
      .pug-nose-color{
        fill:#2a2c2d;
      }
      .water-shadow{
        fill:#2c6d7c;
      }
      .night .water-shadow{
        filter:url(#darkenAndDesaturate);
      }
      .boat-color-dark,
      .boat-text {
        fill:{{content.field_boat_color_1|field_value}};
      }
      .boat-color-light{
        fill:{{content.field_boat_color_2|field_value}};
      }
      .boat-text {
        text-transform: uppercase;
        font-family: Arial;
        letter-spacing: 1px;
        font-size: 12px;
        stroke:{{content.field_boat_color_1|field_value}};
      }
      .cls-5,
      .cls-6{
        fill:#fff;
      }
      .cls-5{
        stroke:#000;stroke-miterlimit:10;
      }
      .cls-10{
        fill:#afafaf;
      }
      .cls-11{
        fill:#e5e5e5;
      }
    </style>
  </defs>
  <title id="title6">1X_DrupalCon_AMS_Animation_2019</title>
  <g
    id="Boat"
    transform="translate(-0.63286057,-0.31643029)"
  >
    <path
      d="M 138.14,9.21 A 5.35,5.35 0 0 0 134.79,8 21,21 0 0 1 131.9,7.42 4.37,4.37 0 0 0 127.07,9.33 c -2,-1.41 -4,-2.61 -5.9,-3.68 -2.81,-1.62 -5.23,-3 -5.87,-4.4 L 114.75,0 114.49,1.29 c -0.48,2.36 -3,4.43 -6,6.84 l -0.51,0.41 A 3.82,3.82 0 0 0 105.82,7.78 9.66,9.66 0 0 0 102.7,8.63 20.79,20.79 0 0 1 98,10 1.92,1.92 0 0 0 96.5,10.9 c -0.83,1.39 0.15,3.9 0.94,5.92 A 9.14,9.14 0 0 1 98,18.6 6.86,6.86 0 0 1 97.8,19.76 c -0.26,1.08 -0.55,2.32 0.12,3 l 0.19,0.14 a 16.38,16.38 0 0 0 -0.11,1.84 18.94,18.94 0 0 0 1.63,7.68 15.58,15.58 0 0 1 -9.51,-1 3,3 0 0 0 0.1,-0.69 C 90.26,28 87.75,26 84.42,26 c -3.33,0 -6.27,2.43 -6.27,5.41 a 5.21,5.21 0 0 0 2.56,4.35 17.23,17.23 0 0 0 -3.43,8.37 c -0.43,4.72 -0.86,7.22 -2.93,9.71 v 0.06 0.09 c -1.07,3.57 -0.19,9.79 1.28,12.38 a 2.16,2.16 0 0 0 1.19,1.14 16.77,16.77 0 0 0 3.45,0.33 4.73,4.73 0 0 0 2.59,-0.45 C 83.19,67.06 83,66.6 82.63,65.68 a 12.57,12.57 0 0 1 -1,-7.8 15.51,15.51 0 0 0 4.86,-3.6 c -0.3,4.35 1,10.6 2.89,11.07 a 16.63,16.63 0 0 0 3.45,0.33 4.69,4.69 0 0 0 2.58,-0.45 c 0.33,-0.33 0.14,-0.79 -0.23,-1.71 a 12.59,12.59 0 0 1 -1,-7.8 14.76,14.76 0 0 0 2.56,-1.52 l 1.57,1.22 c -0.57,4 -0.59,9.63 2.48,14.5 l 0.12,0.18 h 0.22 c 2,0.14 3.44,0.19 4.44,0.19 2.06,0 2.29,-0.22 2.38,-0.32 0.3,-0.3 0.13,-0.67 -0.1,-1.18 -0.61,-1.34 -2.1,-4.62 0.15,-11.2 0.45,0 1.31,0.09 2.38,0.09 a 29.09,29.09 0 0 0 3.23,-0.18 19.3,19.3 0 0 0 2.75,10.23 l 0.12,0.19 h 0.22 c 2,0.15 3.44,0.2 4.44,0.2 2.06,0 2.29,-0.23 2.38,-0.32 0.31,-0.31 0.09,-0.68 -0.1,-1 -2.21,-3.75 -1,-10 3.62,-18.59 a 4.19,4.19 0 0 0 0.49,-2.31 11.17,11.17 0 0 0 -1.21,-4.46 19,19 0 0 0 9.87,-16.67 17,17 0 0 0 -0.66,-4.77 5,5 0 0 0 1,0.34 1.86,1.86 0 0 0 0.45,0.06 1,1 0 0 0 0.67,-0.24 c 0.5,-0.48 0.31,-1.38 0.1,-2.43 a 9.19,9.19 0 0 1 -0.25,-1.7 8.89,8.89 0 0 1 0.57,-2.27 c 0.46,-1.67 1.08,-3.54 0.07,-4.55 z"
      id="path8"
    />
    <path
      class="pug-hair-dark"
      d="m 93.56,55 -0.21,0.08 v 0.22 a 13.23,13.23 0 0 0 1,8.54 c 0.12,0.29 0.25,0.62 0.31,0.81 A 14.47,14.47 0 0 1 89.56,64.5 C 88.44,64.22 86.63,57.73 87.48,53.03 A 14.09,14.09 0 0 0 89,50.26 2.26,2.26 0 0 1 91.3,50.1 c 0.7,0.47 2.84,2.11 4.63,3.49 A 13,13 0 0 1 93.56,55 Z"
      id="back-leg"
    />
    <path
      class="pug-hair"
      d="m 126.58,45.92 a 3.43,3.43 0 0 1 -0.4,1.86 c -4.81,9 -6,15.32 -3.61,19.4 a 45,45 0 0 1 -5.68,-0.12 18.61,18.61 0 0 1 -2.51,-9.72 8,8 0 0 0 4.75,-2.13 l -0.66,-0.56 c -2,2.39 -8.34,2.19 -10.26,2.06 0.3,-0.77 0.64,-1.6 1,-2.47 l -0.79,-0.36 c -4.24,9.2 -2.24,13.59 -1.49,15.24 a 2.14,2.14 0 0 1 0.1,0.22 44.39,44.39 0 0 1 -5.75,-0.12 c -2.9,-4.75 -2.75,-10.4 -2.15,-14.19 v 0 a 25.8,25.8 0 0 1 1,-4.27 l -0.81,-0.29 a 26.41,26.41 0 0 0 -1,3.93 c -1.69,-1.32 -5.55,-4.33 -6.58,-5 A 2.67,2.67 0 0 0 89.41,49.14 14.88,14.88 0 0 0 90.2,45.47 L 89.34,45.39 A 14.42,14.42 0 0 1 81,57.12 l -0.21,0.08 -0.06,0.22 a 13.27,13.27 0 0 0 1,8.54 8,8 0 0 1 0.3,0.81 14.23,14.23 0 0 1 -5.1,-0.15 c -0.06,0 -0.3,-0.12 -0.65,-0.72 -1.2,-2.12 -2.26,-8 -1.22,-11.63 2.17,-2.65 2.62,-5.25 3.06,-10.12 a 16.76,16.76 0 0 1 3.34,-8 7.07,7.07 0 0 0 2.94,0.63 V 35.9 c -3,0 -5.41,-2 -5.41,-4.54 0,-2.54 2.43,-4.54 5.41,-4.54 2.83,0 5,1.67 5,3.89 a 3.82,3.82 0 0 1 -2.36,3 3.44,3.44 0 0 1 -3.65,-1 2.09,2.09 0 0 0 1.16,-0.71 1.92,1.92 0 0 0 0,-1.86 l -0.8,0.33 a 1.12,1.12 0 0 1 0,1 C 83.47,31.9 82.67,31.99 82.39,32 h -1 l 0.65,0.72 c 2.21,2.45 4.2,2.18 5.19,1.8 a 5,5 0 0 0 2.5,-2.33 16.93,16.93 0 0 0 6.73,1.45 13.87,13.87 0 0 0 3.47,-0.44 19,19 0 0 0 25.42,8.6 10.27,10.27 0 0 1 1.23,4.12 z"
      id="body"
    />
    <path
      class="pug-hair"
      d="m 125.46,33.27 a 6.71,6.71 0 0 0 -3.41,-1 6.29,6.29 0 0 0 -2.33,0.47 c 1.33,-0.89 2.78,-1.79 3.27,-1.63 a 6.38,6.38 0 0 1 1.7,1.41 z"
      id="face-color-between-eyes-and-nose"
    />
    <path
      class="pug-ears-nose-eyes"
      d="m 122.05,33.15 c 3.49,0 6.27,3.62 6.27,5.05 0,1.23 -2.58,2.61 -6.27,2.61 -3.69,0 -6.27,-1.38 -6.27,-2.61 0,-1.43 2.78,-5.05 6.27,-5.05 z"
      id="mouth-nose-outline"
    />
    <path
      class="pug-hair"
      d="M 129.18,38.27 V 38.2 a 5.74,5.74 0 0 0 -1.84,-3.44 5,5 0 0 0 1.77,0.7 3.85,3.85 0 0 0 3,-0.78 3.11,3.11 0 0 0 0.28,-0.23 18.75,18.75 0 0 1 -3.21,3.82 z"
      id="face-color-right"
    />
    <path
      class="pug-hair"
      d="m 134.89,28.25 c 0.05,-1.57 -0.29,-2.59 -1,-3.15 -1,-0.72 -2.57,-0.57 -4.84,0.46 -2.9,1.32 -4.69,2.16 -5.67,2.63 a 1.81,1.81 0 0 1 -1.37,0.09 L 115.05,26 c -3.19,-1.06 -6,-0.95 -7.65,0.3 -1.2,0.94 -1.73,2.44 -1.57,4.47 a 5.45,5.45 0 0 0 2.7,4.59 7.22,7.22 0 0 0 3.51,0.84 8.07,8.07 0 0 0 3.5,-0.75 c 0.4,-0.2 0.84,-0.46 1.28,-0.74 a 5.85,5.85 0 0 0 -1.91,3.52 c 0,1.95 3.14,3.48 7.14,3.48 a 16,16 0 0 0 1.87,-0.12 18.16,18.16 0 0 1 -25,-16.82 15.53,15.53 0 0 1 0.08,-1.72 3.47,3.47 0 0 0 0.89,-0.14 c 1.94,-0.56 2.59,-2.57 3.21,-4.51 a 7,7 0 0 1 1.7,-3.4 29.2,29.2 0 0 0 4.41,-4.84 L 109.39,9.9 109.2,9.65 a 5,5 0 0 0 -0.53,-0.59 l 0.37,-0.3 c 2.72,-2.21 5.12,-4.16 6,-6.41 1.07,1.3 3.15,2.5 5.68,4 6.12,3.53 14.5,8.38 14.5,18.39 a 17.71,17.71 0 0 1 -0.33,3.51 z"
      id="face-color"
    />
    <path
      class="pug-ears-nose-eyes"
      d="m 137.15,13.46 a 9.24,9.24 0 0 0 -0.61,2.54 9.65,9.65 0 0 0 0.26,1.88 c 0.1,0.51 0.3,1.46 0.16,1.62 0,0 -0.08,0 -0.32,0 a 2.58,2.58 0 0 1 -1.69,-1 20.74,20.74 0 0 0 -7.17,-8.71 3.47,3.47 0 0 1 3.88,-1.6 20.37,20.37 0 0 0 3,0.6 4.59,4.59 0 0 1 2.86,1 c 0.64,0.66 0.11,2.26 -0.37,3.67 z"
      id="ear-right"
    />
    <path
      d="m 122.1,37.2 a 3,3 0 0 0 2.81,-2.38 c 0,-1 -1.41,-1.52 -2.81,-1.52 -1.4,0 -2.81,0.52 -2.81,1.52 a 3,3 0 0 0 2.81,2.38 z"
      id="nose-outline"
    />
    <path
      class="pug-nose-color"
      d="m 122.1,34.17 c 1.26,0 1.94,0.46 1.94,0.65 a 2,2 0 0 1 -3.89,0 c 0,-0.19 0.68,-0.65 1.95,-0.65 z"
      id="nose-color"
    />
    <path
      class="pug-ears-nose-eyes"
      d="m 105.83,8.65 a 9.24,9.24 0 0 0 -2.82,0.79 21.58,21.58 0 0 1 -4.91,1.37 1.09,1.09 0 0 0 -0.87,0.48 c -0.61,1 0.37,3.52 1,5.16 A 7.62,7.62 0 0 1 98.9,18.6 6.46,6.46 0 0 1 98.68,20 c -0.17,0.73 -0.43,1.84 -0.12,2.14 0.15,0.14 0.55,0.14 1.09,0 1.5,-0.42 2,-2.13 2.63,-3.93 0.46,-1.45 0.94,-2.94 2,-3.77 a 27.27,27.27 0 0 0 4,-4.4 3.69,3.69 0 0 0 -2.45,-1.39 z"
      id="ear-left"
    />
    <path
      class="pug-ears-nose-eyes"
      d="m 133.94,29.36 a 6.87,6.87 0 0 1 -2.32,4.64 3.1,3.1 0 0 1 -2.37,0.62 c -1.45,-0.25 -2.84,-1.61 -4,-2.7 a 6.55,6.55 0 0 0 -2,-1.61 c -1,-0.33 -2.49,0.67 -4.89,2.32 a 33,33 0 0 1 -3.22,2 7.28,7.28 0 0 1 -6.2,-0.08 4.57,4.57 0 0 1 -2.26,-3.9 4.06,4.06 0 0 1 1.25,-3.65 4.94,4.94 0 0 1 3,-0.84 12.13,12.13 0 0 1 3.8,0.68 l 6.91,2.31 a 2.72,2.72 0 0 0 2,-0.13 v 0 c 1,-0.47 2.77,-1.31 5.66,-2.63 1.93,-0.87 3.26,-1.06 4,-0.54 0.74,0.52 0.88,1.62 0.64,3.51 z"
      id="eyes-outline"
    />
    <ellipse
      class="cls-5"
      cx="113.92796"
      cy="30.578365"
      id="eye-left-outer"
      rx="3.3900001"
      ry="3.3"
      style="fill:#ffffff;stroke:#000000;stroke-width:1.11615252;stroke-miterlimit:10"
    />
    <ellipse
      class="cls-5"
      cx="129.24715"
      cy="30.487955"
      rx="3.3900001"
      ry="3.3"
      id="eye-right-outer"
      style="fill:#ffffff;stroke:#000000;stroke-width:1.16978455;stroke-miterlimit:10"
    />
    <circle
      cx="114.33754"
      cy="30.897549"
      id="eye-left-inner-black"
      style="stroke-width:1.27122605"
      r="2.5999999"
    />
    <circle
      cx="129.88"
      cy="30.889999"
      id="eye-right-inner-black"
      r="2.5999999"
    />
    <ellipse
      class="cls-6"
      cx="56.934566"
      cy="95.960373"
      rx="0.4334963"
      ry="0.56211877"
      transform="matrix(0.78145159,-0.62396588,0.72199959,0.69189349,0,0)"
      id="eye-left-small-white"
      style="fill:#ffffff;stroke-width:1.3465023"
    />
    <ellipse
      class="cls-6"
      cx="67.406181"
      cy="105.40017"
      rx="0.4334963"
      ry="0.56211877"
      transform="matrix(0.78145159,-0.62396588,0.72199959,0.69189349,0,0)"
      id="eye-right-small-white"
      style="fill:#ffffff;stroke-width:1.3465023"
    />
    <path
      style="fill:#000000;stroke-width:0.20918454"
      d="m 116.89147,39.288376 c -0.65833,-0.67018 -1.00907,-1.83595 -0.74318,-2.470138 0.12625,-0.301103 0.18273,-0.248886 0.30003,0.277346 0.53207,2.387147 2.08577,3.125081 3.44236,1.634955 0.70626,-0.775786 1.45409,-1.12242 2.42149,-1.12242 0.70476,0 0.99246,0.149043 1.83336,0.949764 0.54859,0.52237 1.08332,0.949764 1.18832,0.949764 0.10499,0 0.52545,-0.142308 0.93437,-0.31624 0.79542,-0.338329 1.05697,-0.705441 1.48367,-2.082486 l 0.27042,-0.872684 0.0205,0.887069 c 0.0279,1.207391 -0.29276,1.826489 -1.2212,2.357693 -1.2194,0.697676 -2.00037,0.597906 -2.906,-0.371251 -0.42145,-0.45101 -0.96271,-0.883486 -1.20279,-0.961059 -0.77627,-0.250811 -1.79229,0.08258 -2.21835,0.727914 -0.82884,1.255411 -2.5779,1.455305 -3.60298,0.411773 z"
      id="mouth"
    />
    <ellipse
      style="fill:#000000"
      id="nose-hole-left"
      cx="121.22182"
      cy="35.528461"
      rx="0.2486238"
      ry="0.65546274"
    />
    <ellipse
      style="fill:#000000"
      id="nose-hole-right"
      cx="122.93004"
      cy="35.532093"
      rx="0.2486238"
      ry="0.65546274"
    />
    <path
      class="water-shadow"
      d="m 39.881428,77.671296 c 0,0 -42.6799994,-0.873898 -39.15999942,1.040967 3.52000002,1.914864 20.16999942,1.734944 21.33999942,4.240975 1.17,2.506031 -14.4099994,1.362253 -5.09,4.498004 9.32,3.135752 35.47,5.281942 49.8,5.860257 14.54,0.591166 88.789992,0.758235 94.479992,-4.099609 5.69,-4.857845 7.31,-10.088381 -1.38,-10.640993 -8.69,-0.552612 -119.989992,-0.899601 -119.989992,-0.899601 z"
      id="water-shadow"
      style="fill:#2c6d7c"
    />
    <path
      class="boat-color-dark"
      d="m 37.281295,85.342325 a 553.91611,703.51475 0 0 0 57.754953,4.189786 c 28.075332,-0.191024 53.142582,-3.285607 53.142582,-3.285607 l 7.65054,-3.565776 0.1905,-0.292903 H 36.880219 Z"
      id="boat-bottom"
    />
    <path
      id="boat-top"
      class="boat-color-dark"
      d="m 167.20502,57.77203 -17.47095,1.523841 -36.77497,4.779223 H 40.333555 l -5.125444,1.561989 0.271416,1.69975 c 0.0032,0.01409 0.0064,0.02811 0.0099,0.04239 0.01097,0.0468 0.02207,0.09531 0.03343,0.142 0.01224,0.04966 0.02358,0.0986 0.0354,0.148357 0.01224,0.05149 0.02388,0.103033 0.0354,0.154716 0.01169,0.05269 0.02428,0.106125 0.0354,0.158953 0.01075,0.05254 0.02204,0.104455 0.03343,0.156835 0.01147,0.05187 0.0233,0.103022 0.0354,0.154715 0.01241,0.05279 0.02532,0.106071 0.03737,0.158955 0.0118,0.05217 0.02342,0.104715 0.0354,0.156835 0.01196,0.05254 0.02294,0.104421 0.0354,0.156834 0.0127,0.05303 0.02695,0.105844 0.03934,0.158955 0.01247,0.05357 0.02346,0.107363 0.0354,0.161073 0.01205,0.05348 0.02393,0.107471 0.0354,0.161074 0.01155,0.05438 0.02236,0.108701 0.03343,0.163193 0.01111,0.05476 0.02274,0.110465 0.03343,0.165312 0.01059,0.05466 0.02119,0.108469 0.03147,0.163194 0.01009,0.0547 0.01925,0.108524 0.0295,0.163192 0.01028,0.05487 0.02142,0.110388 0.03147,0.165312 0.01037,0.05529 0.01825,0.111931 0.02753,0.167432 0.0093,0.05493 0.01877,0.108177 0.02753,0.163193 0.0092,0.05636 0.01759,0.112983 0.02557,0.169551 0.0079,0.05626 0.01603,0.113234 0.02361,0.169551 0.0031,0.02412 0.0068,0.04805 0.0099,0.07206 H 160.96253 l 0.57627,-0.828681 c 0.035,-0.06133 0.0692,-0.123216 0.10424,-0.184387 0.053,-0.09261 0.10429,-0.185046 0.15734,-0.27764 0.0536,-0.09374 0.10926,-0.188345 0.16324,-0.281879 0.0542,-0.09483 0.1086,-0.189416 0.16324,-0.283998 0.0545,-0.09545 0.10874,-0.190638 0.16325,-0.286118 0.0539,-0.09517 0.10745,-0.190861 0.16128,-0.286117 0.0539,-0.09521 0.10918,-0.188865 0.16325,-0.283998 0.0543,-0.09581 0.10729,-0.192179 0.16127,-0.288237 0.054,-0.0957 0.10761,-0.19225 0.16128,-0.288237 0.0542,-0.09719 0.10843,-0.193504 0.16324,-0.290356 0.0542,-0.0961 0.10952,-0.193904 0.16324,-0.290357 0.0537,-0.09688 0.10738,-0.191399 0.16127,-0.288236 0.053,-0.09558 0.10666,-0.192382 0.15932,-0.288238 0.0523,-0.09599 0.10459,-0.192517 0.15735,-0.288236 0.0521,-0.09462 0.1035,-0.189199 0.15536,-0.283998 0.0521,-0.09437 0.10484,-0.187707 0.15734,-0.28188 0.0525,-0.09455 0.10663,-0.189547 0.15932,-0.283998 0.0534,-0.09559 0.10556,-0.190696 0.15931,-0.286118 0.0541,-0.09595 0.10893,-0.192393 0.16324,-0.288235 0.0547,-0.09607 0.11012,-0.192359 0.16521,-0.288238 0.0546,-0.09626 0.10991,-0.192372 0.1652,-0.288236 0.0548,-0.09557 0.10843,-0.190504 0.16325,-0.286118 0.0548,-0.09518 0.11022,-0.188864 0.16522,-0.283998 0.055,-0.09525 0.1104,-0.190683 0.16521,-0.286118 0.0546,-0.09495 0.1093,-0.190665 0.16324,-0.286118 0.0533,-0.0937 0.10643,-0.187834 0.15931,-0.281878 0.0506,-0.092 0.10189,-0.18493 0.15144,-0.27764 0.0483,-0.09139 0.0958,-0.18167 0.14357,-0.273402 0.0476,-0.09144 0.0946,-0.183745 0.14161,-0.27552 0.0477,-0.09228 0.0955,-0.183489 0.14357,-0.275521 0.0474,-0.09127 0.0951,-0.183738 0.14162,-0.275521 0.0455,-0.08972 0.0911,-0.178969 0.1357,-0.269162 0.0436,-0.08843 0.0864,-0.178522 0.12981,-0.267042 0.0423,-0.08736 0.0838,-0.173222 0.12588,-0.260686 0.0411,-0.08568 0.0816,-0.172516 0.12193,-0.258565 0.0393,-0.08317 0.0775,-0.166578 0.11605,-0.250088 0.0372,-0.08008 0.0752,-0.159243 0.11211,-0.239491 0.0354,-0.07766 0.0695,-0.157191 0.10424,-0.235252 0.0331,-0.07511 0.0671,-0.149541 0.10032,-0.224655 0.0308,-0.07049 0.0623,-0.141043 0.0925,-0.211939 0.0292,-0.06917 0.0571,-0.138584 0.0865,-0.207701 0.0281,-0.06595 0.0568,-0.130944 0.0845,-0.197102 0.0263,-0.06287 0.0531,-0.127454 0.0787,-0.190746 0.0239,-0.05953 0.0479,-0.118032 0.0707,-0.178028 0.0219,-0.05782 0.0428,-0.116093 0.0649,-0.17379 0.0156,-0.041 0.0305,-0.08184 0.0452,-0.122925 z m -2.85773,8.157529 c -0.004,0.0079 -0.009,0.01542 -0.0138,0.02331 l 0.0157,-0.02119 z"
    />
    <path
      id="boat-middle"
      class="boat-color-light"
      d="m 35.891867,69.981833 0.997109,12.40625 H 155.94761 c 0.007,-0.0097 0.0132,-0.01976 0.0195,-0.0293 0.0162,-0.02375 0.0303,-0.04757 0.0449,-0.07227 0.0185,-0.03203 0.0364,-0.06553 0.0548,-0.09766 0.0204,-0.03574 0.0426,-0.07135 0.0626,-0.107422 0.0212,-0.04016 0.0433,-0.07894 0.0646,-0.119141 0.023,-0.04265 0.0434,-0.08726 0.0645,-0.130859 0.0235,-0.04882 0.0487,-0.0958 0.0724,-0.144531 0.0252,-0.0518 0.0488,-0.104543 0.0743,-0.15625 0.0269,-0.05481 0.0548,-0.109474 0.0821,-0.164063 0.0291,-0.05743 0.059,-0.114446 0.088,-0.171875 0.0309,-0.06031 0.0627,-0.11959 0.0939,-0.179687 0.0312,-0.0603 0.0613,-0.121134 0.0919,-0.181641 0.0315,-0.06119 0.0629,-0.122179 0.0938,-0.183594 0.0313,-0.06245 0.0645,-0.125209 0.0958,-0.1875 0.032,-0.06343 0.0621,-0.127865 0.0939,-0.191406 0.033,-0.06742 0.0664,-0.133907 0.0997,-0.201172 0.0351,-0.07014 0.0708,-0.140603 0.10558,-0.210937 0.0361,-0.07302 0.0714,-0.145722 0.10754,-0.21875 0.0366,-0.07499 0.0743,-0.149888 0.11143,-0.22461 0.006,-0.01308 0.013,-0.02599 0.0195,-0.03906 0.002,-0.004 0.004,-0.0077 0.006,-0.01172 0.041,-0.09166 0.0803,-0.183635 0.12122,-0.275391 0.0448,-0.09936 0.0919,-0.199467 0.13686,-0.298828 0.049,-0.108049 0.0981,-0.21486 0.14858,-0.322265 0.0581,-0.121539 0.1146,-0.243434 0.17206,-0.365235 0.0617,-0.129262 0.12369,-0.259594 0.18574,-0.388672 0.0629,-0.130627 0.12566,-0.26156 0.18769,-0.392578 0.0629,-0.132361 0.12695,-0.264054 0.18964,-0.396484 0.0631,-0.132977 0.12344,-0.267086 0.18574,-0.400391 0.0632,-0.134971 0.12429,-0.270525 0.18573,-0.40625 0.0632,-0.139762 0.12589,-0.27957 0.18769,-0.419922 0.0635,-0.144309 0.12778,-0.288604 0.18965,-0.433593 0.0638,-0.148419 0.12472,-0.296585 0.18769,-0.445313 0.0634,-0.150482 0.12695,-0.30237 0.18965,-0.453125 0.0639,-0.152708 0.12472,-0.305903 0.18769,-0.458984 0.0631,-0.153109 0.12714,-0.305663 0.18964,-0.458985 0.0626,-0.15417 0.12534,-0.308635 0.18769,-0.46289 0.0624,-0.155416 0.12466,-0.309704 0.18769,-0.464844 0.0634,-0.155391 0.12636,-0.311386 0.18965,-0.466797 0.0635,-0.155159 0.12665,-0.311484 0.18965,-0.466797 0.0632,-0.155554 0.12604,-0.311449 0.18964,-0.466797 0.0636,-0.155292 0.12688,-0.310063 0.19161,-0.464843 0.0649,-0.15485 0.12843,-0.308184 0.19355,-0.462891 0.0296,-0.07014 0.0618,-0.140529 0.0919,-0.210937 z m 123.506523,8.238281 c -0.0192,0.03967 -0.0391,0.0794 -0.0587,0.11914 0.005,0.0013 0.0142,-4.72e-4 0.0176,0.002 z m -2.00791,4.128906 c -0.006,0.0128 -0.0133,0.02613 -0.0195,0.03906 h 0.0273 c -0.006,-0.01079 -0.005,-0.0264 -0.008,-0.03906 z"
    />
    <text
      x="44.360714"
      y="80.66214"
      id="boat-text"
      class="boat-text"
    >
      {{ label[0]['#context'].value }}
    </text>
    <path
      class="water-shadow"
      d="m 165.75857,89.397643 c 0,0 9.07,-7.703628 3.17,-9.736022 -5.9,-2.032395 -1.54,-1.533424 0.42,-1.217003 1.96,0.31642 6.18,3.054677 3.8,5.366982 -2.38,2.312305 -6.51,6.876066 -7.39,5.586043 z"
      id="water-shadow-small-left"
      style="fill:#2c6d7c"
    />
    <path
      class="water-shadow"
      d="m 173.85857,87.614026 c 0,0 5.18,-6.422089 1.81,-8.119732 -3.37,-1.697643 -0.88,-1.316002 0.24,-1.039642 1.12,0.276361 3.58,2.539884 2.18,4.448087 -1.4,1.908203 -3.73,5.777249 -4.23,4.711287 z"
      id="water-shadow-small-right"
      style="fill:#2c6d7c"
    />
    <path
      class="cls-6"
      d="M 36.75,38.34 A 0.32,0.32 0 0 0 36.33,38.2 0.28,0.28 0 0 0 36.16,38.55 L 45.26,64 h 1 z"
      id="flag-holder-stick"
      style="fill:#ffffff"
    />
    <path
      class="cls-10"
      d="m 36.24,39.28 a 0.15,0.15 0 0 1 -0.14,-0.11 0.16,0.16 0 0 1 0.09,-0.2 l 0.8,-0.28 a 0.16,0.16 0 1 1 0.11,0.29 l -0.8,0.29 z"
      id="flag-holder-small-top"
      style="fill:#afafaf"
    />
    <path
      class="cls-10"
      d="m 38.72,46 a 0.15,0.15 0 0 1 0,-0.3 l 0.8,-0.29 a 0.16,0.16 0 0 1 0.2,0.1 0.15,0.15 0 0 1 -0.1,0.2 l -0.8,0.28 z"
      id="flag-holder-small-bottom"
      style="fill:#afafaf"
    />
    <path
      class="cls-11"
      d="M 36.35,39.08 H 27.19 L 23,45.87 h 15.78 c 0,0 -3,-1.93 -2.43,-6.79"
      id="flag"
      style="fill:#e5e5e5"
    />
    <path
      class="boat-color-light"
      d="m 32.79,42.81 a 1.73,1.73 0 1 1 -3.46,0 c 0,-1.23 1.57,-1.68 1.73,-2.39 0.2,0.7 1.73,1.18 1.73,2.39 z"
      id="flag-drupal-logo"
      style="fill:#0d8fe7"
    />
  </g>
</svg>
