
<?xml version="1.0" encoding="UTF-8" standalone="no"?>
<svg
   xmlns:dc="http://purl.org/dc/elements/1.1/"
   xmlns:cc="http://creativecommons.org/ns#"
   xmlns:rdf="http://www.w3.org/1999/02/22-rdf-syntax-ns#"
   xmlns:svg="http://www.w3.org/2000/svg"
   xmlns="http://www.w3.org/2000/svg"
   xmlns:sodipodi="http://sodipodi.sourceforge.net/DTD/sodipodi-0.dtd"
   xmlns:inkscape="http://www.inkscape.org/namespaces/inkscape"
   width="179"
   height="83.89"
   viewBox="0 0 179 83.89"
   version="1.1"
   id="svg73"
   sodipodi:docname="drupug_boat.svg"
   inkscape:version="0.92.4 (f8dce91, 2019-08-02)">
  <defs id="defs4">
    <filter id="darkenAndDesaturate">
      <feColorMatrix
        type="matrix" result="darkened"
        values=".4   0   0   0   0
             0  .4   0   0   0
             0   0  .4   0   0
             0   0   0   1   0 "/>
      <feColorMatrix
        type="saturate" result="desaturated"
        values="0.9" />
    </filter>
    <style id="style2">
      .pug-hair-dark{
        fill:{{(content.field_pug_hair|field_value)|default('#d8b17f')}};
        filter:url(#darkenAndDesaturate);
      }
      .pug-hair{
        fill:{{(content.field_pug_hair|field_value)|default('#d8b17f')}};
      }
      .pug-ears-nose-eyes{
        fill:{{(content.field_pug_face|field_value)|default('#5b3c1d')}};
      }
      .pug-nose-color{
        fill:#2a2c2d;
      }
      .water-shadow{
        fill:#2c6d7c;
      }
      .night .water-shadow{
        filter:url(#darkenAndDesaturate);
      }
      .boat-color-dark{
        fill:{{content.field_boat_color_1|field_value}};
      }
      .boat-color-light{
        fill:{{content.field_boat_color_2|field_value}};
      }
      .cls-5,
      .cls-6{
        fill:#fff;
      }
      .cls-5{
        stroke:#000;stroke-miterlimit:10;
      }
      .cls-10{
        fill:#afafaf;
      }
      .cls-11{
        fill:#e5e5e5;
      }
    </style>
  </defs>
  <title id="title6">1X_DrupalCon_AMS_Animation_2019</title>
  <g
    id="Boat"
    transform="translate(-0.63286057,-0.31643029)"
  >
    <path
      d="M 138.14,9.21 A 5.35,5.35 0 0 0 134.79,8 21,21 0 0 1 131.9,7.42 4.37,4.37 0 0 0 127.07,9.33 c -2,-1.41 -4,-2.61 -5.9,-3.68 -2.81,-1.62 -5.23,-3 -5.87,-4.4 L 114.75,0 114.49,1.29 c -0.48,2.36 -3,4.43 -6,6.84 l -0.51,0.41 A 3.82,3.82 0 0 0 105.82,7.78 9.66,9.66 0 0 0 102.7,8.63 20.79,20.79 0 0 1 98,10 1.92,1.92 0 0 0 96.5,10.9 c -0.83,1.39 0.15,3.9 0.94,5.92 A 9.14,9.14 0 0 1 98,18.6 6.86,6.86 0 0 1 97.8,19.76 c -0.26,1.08 -0.55,2.32 0.12,3 l 0.19,0.14 a 16.38,16.38 0 0 0 -0.11,1.84 18.94,18.94 0 0 0 1.63,7.68 15.58,15.58 0 0 1 -9.51,-1 3,3 0 0 0 0.1,-0.69 C 90.26,28 87.75,26 84.42,26 c -3.33,0 -6.27,2.43 -6.27,5.41 a 5.21,5.21 0 0 0 2.56,4.35 17.23,17.23 0 0 0 -3.43,8.37 c -0.43,4.72 -0.86,7.22 -2.93,9.71 v 0.06 0.09 c -1.07,3.57 -0.19,9.79 1.28,12.38 a 2.16,2.16 0 0 0 1.19,1.14 16.77,16.77 0 0 0 3.45,0.33 4.73,4.73 0 0 0 2.59,-0.45 C 83.19,67.06 83,66.6 82.63,65.68 a 12.57,12.57 0 0 1 -1,-7.8 15.51,15.51 0 0 0 4.86,-3.6 c -0.3,4.35 1,10.6 2.89,11.07 a 16.63,16.63 0 0 0 3.45,0.33 4.69,4.69 0 0 0 2.58,-0.45 c 0.33,-0.33 0.14,-0.79 -0.23,-1.71 a 12.59,12.59 0 0 1 -1,-7.8 14.76,14.76 0 0 0 2.56,-1.52 l 1.57,1.22 c -0.57,4 -0.59,9.63 2.48,14.5 l 0.12,0.18 h 0.22 c 2,0.14 3.44,0.19 4.44,0.19 2.06,0 2.29,-0.22 2.38,-0.32 0.3,-0.3 0.13,-0.67 -0.1,-1.18 -0.61,-1.34 -2.1,-4.62 0.15,-11.2 0.45,0 1.31,0.09 2.38,0.09 a 29.09,29.09 0 0 0 3.23,-0.18 19.3,19.3 0 0 0 2.75,10.23 l 0.12,0.19 h 0.22 c 2,0.15 3.44,0.2 4.44,0.2 2.06,0 2.29,-0.23 2.38,-0.32 0.31,-0.31 0.09,-0.68 -0.1,-1 -2.21,-3.75 -1,-10 3.62,-18.59 a 4.19,4.19 0 0 0 0.49,-2.31 11.17,11.17 0 0 0 -1.21,-4.46 19,19 0 0 0 9.87,-16.67 17,17 0 0 0 -0.66,-4.77 5,5 0 0 0 1,0.34 1.86,1.86 0 0 0 0.45,0.06 1,1 0 0 0 0.67,-0.24 c 0.5,-0.48 0.31,-1.38 0.1,-2.43 a 9.19,9.19 0 0 1 -0.25,-1.7 8.89,8.89 0 0 1 0.57,-2.27 c 0.46,-1.67 1.08,-3.54 0.07,-4.55 z"
      id="path8"
    />
    <path
      class="pug-hair-dark"
      d="m 93.56,55 -0.21,0.08 v 0.22 a 13.23,13.23 0 0 0 1,8.54 c 0.12,0.29 0.25,0.62 0.31,0.81 A 14.47,14.47 0 0 1 89.56,64.5 C 88.44,64.22 86.63,57.73 87.48,53.03 A 14.09,14.09 0 0 0 89,50.26 2.26,2.26 0 0 1 91.3,50.1 c 0.7,0.47 2.84,2.11 4.63,3.49 A 13,13 0 0 1 93.56,55 Z"
      id="back-leg"
    />
    <path
      class="pug-hair"
      d="m 126.58,45.92 a 3.43,3.43 0 0 1 -0.4,1.86 c -4.81,9 -6,15.32 -3.61,19.4 a 45,45 0 0 1 -5.68,-0.12 18.61,18.61 0 0 1 -2.51,-9.72 8,8 0 0 0 4.75,-2.13 l -0.66,-0.56 c -2,2.39 -8.34,2.19 -10.26,2.06 0.3,-0.77 0.64,-1.6 1,-2.47 l -0.79,-0.36 c -4.24,9.2 -2.24,13.59 -1.49,15.24 a 2.14,2.14 0 0 1 0.1,0.22 44.39,44.39 0 0 1 -5.75,-0.12 c -2.9,-4.75 -2.75,-10.4 -2.15,-14.19 v 0 a 25.8,25.8 0 0 1 1,-4.27 l -0.81,-0.29 a 26.41,26.41 0 0 0 -1,3.93 c -1.69,-1.32 -5.55,-4.33 -6.58,-5 A 2.67,2.67 0 0 0 89.41,49.14 14.88,14.88 0 0 0 90.2,45.47 L 89.34,45.39 A 14.42,14.42 0 0 1 81,57.12 l -0.21,0.08 -0.06,0.22 a 13.27,13.27 0 0 0 1,8.54 8,8 0 0 1 0.3,0.81 14.23,14.23 0 0 1 -5.1,-0.15 c -0.06,0 -0.3,-0.12 -0.65,-0.72 -1.2,-2.12 -2.26,-8 -1.22,-11.63 2.17,-2.65 2.62,-5.25 3.06,-10.12 a 16.76,16.76 0 0 1 3.34,-8 7.07,7.07 0 0 0 2.94,0.63 V 35.9 c -3,0 -5.41,-2 -5.41,-4.54 0,-2.54 2.43,-4.54 5.41,-4.54 2.83,0 5,1.67 5,3.89 a 3.82,3.82 0 0 1 -2.36,3 3.44,3.44 0 0 1 -3.65,-1 2.09,2.09 0 0 0 1.16,-0.71 1.92,1.92 0 0 0 0,-1.86 l -0.8,0.33 a 1.12,1.12 0 0 1 0,1 C 83.47,31.9 82.67,31.99 82.39,32 h -1 l 0.65,0.72 c 2.21,2.45 4.2,2.18 5.19,1.8 a 5,5 0 0 0 2.5,-2.33 16.93,16.93 0 0 0 6.73,1.45 13.87,13.87 0 0 0 3.47,-0.44 19,19 0 0 0 25.42,8.6 10.27,10.27 0 0 1 1.23,4.12 z"
      id="body"
    />
    <path
      class="pug-hair"
      d="m 125.46,33.27 a 6.71,6.71 0 0 0 -3.41,-1 6.29,6.29 0 0 0 -2.33,0.47 c 1.33,-0.89 2.78,-1.79 3.27,-1.63 a 6.38,6.38 0 0 1 1.7,1.41 z"
      id="face-color-between-eyes-and-nose"
    />
    <path
      class="pug-ears-nose-eyes"
      d="m 122.05,33.15 c 3.49,0 6.27,3.62 6.27,5.05 0,1.23 -2.58,2.61 -6.27,2.61 -3.69,0 -6.27,-1.38 -6.27,-2.61 0,-1.43 2.78,-5.05 6.27,-5.05 z"
      id="mouth-nose-outline"
    />
    <path
      class="pug-hair"
      d="M 129.18,38.27 V 38.2 a 5.74,5.74 0 0 0 -1.84,-3.44 5,5 0 0 0 1.77,0.7 3.85,3.85 0 0 0 3,-0.78 3.11,3.11 0 0 0 0.28,-0.23 18.75,18.75 0 0 1 -3.21,3.82 z"
      id="face-color-right"
    />
    <path
      class="pug-hair"
      d="m 134.89,28.25 c 0.05,-1.57 -0.29,-2.59 -1,-3.15 -1,-0.72 -2.57,-0.57 -4.84,0.46 -2.9,1.32 -4.69,2.16 -5.67,2.63 a 1.81,1.81 0 0 1 -1.37,0.09 L 115.05,26 c -3.19,-1.06 -6,-0.95 -7.65,0.3 -1.2,0.94 -1.73,2.44 -1.57,4.47 a 5.45,5.45 0 0 0 2.7,4.59 7.22,7.22 0 0 0 3.51,0.84 8.07,8.07 0 0 0 3.5,-0.75 c 0.4,-0.2 0.84,-0.46 1.28,-0.74 a 5.85,5.85 0 0 0 -1.91,3.52 c 0,1.95 3.14,3.48 7.14,3.48 a 16,16 0 0 0 1.87,-0.12 18.16,18.16 0 0 1 -25,-16.82 15.53,15.53 0 0 1 0.08,-1.72 3.47,3.47 0 0 0 0.89,-0.14 c 1.94,-0.56 2.59,-2.57 3.21,-4.51 a 7,7 0 0 1 1.7,-3.4 29.2,29.2 0 0 0 4.41,-4.84 L 109.39,9.9 109.2,9.65 a 5,5 0 0 0 -0.53,-0.59 l 0.37,-0.3 c 2.72,-2.21 5.12,-4.16 6,-6.41 1.07,1.3 3.15,2.5 5.68,4 6.12,3.53 14.5,8.38 14.5,18.39 a 17.71,17.71 0 0 1 -0.33,3.51 z"
      id="face-color"
    />
    <path
      class="pug-ears-nose-eyes"
      d="m 137.15,13.46 a 9.24,9.24 0 0 0 -0.61,2.54 9.65,9.65 0 0 0 0.26,1.88 c 0.1,0.51 0.3,1.46 0.16,1.62 0,0 -0.08,0 -0.32,0 a 2.58,2.58 0 0 1 -1.69,-1 20.74,20.74 0 0 0 -7.17,-8.71 3.47,3.47 0 0 1 3.88,-1.6 20.37,20.37 0 0 0 3,0.6 4.59,4.59 0 0 1 2.86,1 c 0.64,0.66 0.11,2.26 -0.37,3.67 z"
      id="ear-right"
    />
    <path
      d="m 122.1,37.2 a 3,3 0 0 0 2.81,-2.38 c 0,-1 -1.41,-1.52 -2.81,-1.52 -1.4,0 -2.81,0.52 -2.81,1.52 a 3,3 0 0 0 2.81,2.38 z"
      id="nose-outline"
    />
    <path
      class="pug-nose-color"
      d="m 122.1,34.17 c 1.26,0 1.94,0.46 1.94,0.65 a 2,2 0 0 1 -3.89,0 c 0,-0.19 0.68,-0.65 1.95,-0.65 z"
      id="nose-color"
    />
    <path
      class="pug-ears-nose-eyes"
      d="m 105.83,8.65 a 9.24,9.24 0 0 0 -2.82,0.79 21.58,21.58 0 0 1 -4.91,1.37 1.09,1.09 0 0 0 -0.87,0.48 c -0.61,1 0.37,3.52 1,5.16 A 7.62,7.62 0 0 1 98.9,18.6 6.46,6.46 0 0 1 98.68,20 c -0.17,0.73 -0.43,1.84 -0.12,2.14 0.15,0.14 0.55,0.14 1.09,0 1.5,-0.42 2,-2.13 2.63,-3.93 0.46,-1.45 0.94,-2.94 2,-3.77 a 27.27,27.27 0 0 0 4,-4.4 3.69,3.69 0 0 0 -2.45,-1.39 z"
      id="ear-left"
    />
    <path
      class="pug-ears-nose-eyes"
      d="m 133.94,29.36 a 6.87,6.87 0 0 1 -2.32,4.64 3.1,3.1 0 0 1 -2.37,0.62 c -1.45,-0.25 -2.84,-1.61 -4,-2.7 a 6.55,6.55 0 0 0 -2,-1.61 c -1,-0.33 -2.49,0.67 -4.89,2.32 a 33,33 0 0 1 -3.22,2 7.28,7.28 0 0 1 -6.2,-0.08 4.57,4.57 0 0 1 -2.26,-3.9 4.06,4.06 0 0 1 1.25,-3.65 4.94,4.94 0 0 1 3,-0.84 12.13,12.13 0 0 1 3.8,0.68 l 6.91,2.31 a 2.72,2.72 0 0 0 2,-0.13 v 0 c 1,-0.47 2.77,-1.31 5.66,-2.63 1.93,-0.87 3.26,-1.06 4,-0.54 0.74,0.52 0.88,1.62 0.64,3.51 z"
      id="eyes-outline"
    />
    <ellipse
      class="cls-5"
      cx="113.92796"
      cy="30.578365"
      id="eye-left-outer"
      rx="3.3900001"
      ry="3.3"
      style="fill:#ffffff;stroke:#000000;stroke-width:1.11615252;stroke-miterlimit:10"
    />
    <ellipse
      class="cls-5"
      cx="129.24715"
      cy="30.487955"
      rx="3.3900001"
      ry="3.3"
      id="eye-right-outer"
      style="fill:#ffffff;stroke:#000000;stroke-width:1.16978455;stroke-miterlimit:10"
    />
    <circle
      cx="114.33754"
      cy="30.897549"
      id="eye-left-inner-black"
      style="stroke-width:1.27122605"
      r="2.5999999"
    />
    <circle
      cx="129.88"
      cy="30.889999"
      id="eye-right-inner-black"
      r="2.5999999"
    />
    <ellipse
      class="cls-6"
      cx="56.934566"
      cy="95.960373"
      rx="0.4334963"
      ry="0.56211877"
      transform="matrix(0.78145159,-0.62396588,0.72199959,0.69189349,0,0)"
      id="eye-left-small-white"
      style="fill:#ffffff;stroke-width:1.3465023"
    />
    <ellipse
      class="cls-6"
      cx="67.406181"
      cy="105.40017"
      rx="0.4334963"
      ry="0.56211877"
      transform="matrix(0.78145159,-0.62396588,0.72199959,0.69189349,0,0)"
      id="eye-right-small-white"
      style="fill:#ffffff;stroke-width:1.3465023"
    />
    <path
      style="fill:#000000;stroke-width:0.20918454"
      d="m 116.89147,39.288376 c -0.65833,-0.67018 -1.00907,-1.83595 -0.74318,-2.470138 0.12625,-0.301103 0.18273,-0.248886 0.30003,0.277346 0.53207,2.387147 2.08577,3.125081 3.44236,1.634955 0.70626,-0.775786 1.45409,-1.12242 2.42149,-1.12242 0.70476,0 0.99246,0.149043 1.83336,0.949764 0.54859,0.52237 1.08332,0.949764 1.18832,0.949764 0.10499,0 0.52545,-0.142308 0.93437,-0.31624 0.79542,-0.338329 1.05697,-0.705441 1.48367,-2.082486 l 0.27042,-0.872684 0.0205,0.887069 c 0.0279,1.207391 -0.29276,1.826489 -1.2212,2.357693 -1.2194,0.697676 -2.00037,0.597906 -2.906,-0.371251 -0.42145,-0.45101 -0.96271,-0.883486 -1.20279,-0.961059 -0.77627,-0.250811 -1.79229,0.08258 -2.21835,0.727914 -0.82884,1.255411 -2.5779,1.455305 -3.60298,0.411773 z"
      id="mouth"
    />
    <ellipse
      style="fill:#000000"
      id="nose-hole-left"
      cx="121.22182"
      cy="35.528461"
      rx="0.2486238"
      ry="0.65546274"
    />
    <ellipse
      style="fill:#000000"
      id="nose-hole-right"
      cx="122.93004"
      cy="35.532093"
      rx="0.2486238"
      ry="0.65546274"
    />
    <path
      class="water-shadow"
      d="m 39.37,71.49 c 0,0 -42.68,-0.68 -39.16,0.81 3.52,1.49 20.17,1.35 21.34,3.3 1.17,1.95 -14.41,1.06 -5.09,3.5 9.32,2.44 35.47,4.11 49.8,4.56 14.54,0.46 88.79,0.59 94.48,-3.19 5.69,-3.78 7.31,-7.85 -1.38,-8.28 -8.69,-0.43 -119.99,-0.7 -119.99,-0.7 z"
      id="water-shadow"
      style="fill:#2c6d7c"
    />
    <path
      class="boat-color-dark"
      d="M 37.4,76.78 A 552.43,552.43 0 0 0 95,80.07 c 28,-0.15 53,-2.58 53,-2.58 l 7.63,-2.8 0.19,-0.23 H 37 Z"
      id="boat-bottom"
    />
    <polygon
      class="boat-color-dark"
      points="148.88,60.1 112.36,63.99 40.24,63.99 35.15,65.26 35.97,69.47 160.03,69.47 168.51,59.46 166.23,58.86 "
      id="boat-top"
    />
    <polygon
      class="boat-color-light"
      points="155.8,74.46 160.03,69.47 35.97,69.47 36.95,74.46 "
      id="boat-middle"
    />
    <path
      class="water-shadow"
      d="m 166.27,80.36 c 0,0 9.07,-6.33 3.17,-8 -5.9,-1.67 -1.54,-1.26 0.42,-1 1.96,0.26 6.18,2.51 3.8,4.41 -2.38,1.9 -6.51,5.65 -7.39,4.59 z"
      id="water-shadow-small-left"
      style="fill:#2c6d7c"
    />
    <path
      class="water-shadow"
      d="m 174.37,78.58 c 0,0 5.18,-4.88 1.81,-6.17 -3.37,-1.29 -0.88,-1 0.24,-0.79 1.12,0.21 3.58,1.93 2.18,3.38 -1.4,1.45 -3.73,4.39 -4.23,3.58 z"
      id="water-shadow-small-right"
      style="fill:#2c6d7c"
    />
    <path
      class="cls-6"
      d="M 36.75,38.34 A 0.32,0.32 0 0 0 36.33,38.2 0.28,0.28 0 0 0 36.16,38.55 L 45.26,64 h 1 z"
      id="flag-holder-stick"
      style="fill:#ffffff"
    />
    <path
      class="cls-10"
      d="m 36.24,39.28 a 0.15,0.15 0 0 1 -0.14,-0.11 0.16,0.16 0 0 1 0.09,-0.2 l 0.8,-0.28 a 0.16,0.16 0 1 1 0.11,0.29 l -0.8,0.29 z"
      id="flag-holder-small-top"
      style="fill:#afafaf"
    />
    <path
      class="cls-10"
      d="m 38.72,46 a 0.15,0.15 0 0 1 0,-0.3 l 0.8,-0.29 a 0.16,0.16 0 0 1 0.2,0.1 0.15,0.15 0 0 1 -0.1,0.2 l -0.8,0.28 z"
      id="flag-holder-small-bottom"
      style="fill:#afafaf"
    />
    <path
      class="cls-11"
      d="M 36.35,39.08 H 27.19 L 23,45.87 h 15.78 c 0,0 -3,-1.93 -2.43,-6.79"
      id="flag"
      style="fill:#e5e5e5"
    />
    <path
      class="boat-color-light"
      d="m 32.79,42.81 a 1.73,1.73 0 1 1 -3.46,0 c 0,-1.23 1.57,-1.68 1.73,-2.39 0.2,0.7 1.73,1.18 1.73,2.39 z"
      id="flag-drupal-logo"
      style="fill:#0d8fe7"
    />
  </g>
</svg>
