<svg xmlns="http://www.w3.org/2000/svg" width="36" height="37" viewBox="0 0 36 37">
  <path
    fill={{paragraph.field_icon_color.color}}
    d="M12.412 17.153a1.201 1.201 0 1 0-.002 2.402 1.201 1.201 0 0 0 .002-2.402zm5.71 0a1.201 1.201 0 1 0-.002 2.402 1.201 1.201 0 0 0 .002-2.402zM30.847 5.62A17.627 17.627 0 0 0 18.383.461c-4.675 0-9.16 1.856-12.463 5.16C-.7 12.261-.965 22.911 5.32 29.872L.264 34.925a.899.899 0 0 0 .613 1.536h.036c14.672-.546 17.852-.732 18.633-.822A17.632 17.632 0 0 0 34.871 24.27a17.582 17.582 0 0 0-4.024-18.632V5.62zm-1.275 23.64a15.82 15.82 0 0 1-10.146 4.591.825.825 0 0 0-.168 0c-.98.102-9.419.444-16.12.702l4.032-4.026a.905.905 0 0 0 0-1.266C.996 23.08.996 13.079 7.17 6.898a15.822 15.822 0 0 1 11.19-4.632c4.197 0 8.223 1.666 11.188 4.632 6.181 6.174 6.192 16.176.024 22.363zm-5.74-12.107a1.201 1.201 0 1 0-.002 2.402 1.201 1.201 0 0 0 .002-2.402z"
  />
</svg>
