<svg data-name="Ebene 1" xmlns="http://www.w3.org/2000/svg" width="35.56" height="36.98">
  <path
    fill={{paragraph.field_icon_color.color}}
    d="M22.84 8.06V10H20.9v1.5h1.94v1.94h1.5V11.5h1.93V10h-1.93V8.06zm-2.69-2.68h1.5V3.44h1.94v-1.5h-1.94V0h-1.5v1.94h-1.94v1.5h1.94zM13 11.65h1.5V9.71h1.94v-1.5h-1.96V6.27H13v1.94h-2v1.5h2zm10.33 13l12.25-10-.77-.58a5.78 5.78 0 0 0-7.1.15l-3.77 3.07-2 .47a2.51 2.51 0 0 0 0-1.09 2.56 2.56 0 0 0-3.09-1.9l-5.71 1.33a8.31 8.31 0 0 0-5.67 4.65l-2.65 5.8-2.43-1L0 31.32 13.68 37l2.39-5.77-2.35-1 1.41-3.68zM4.08 31.39L2 30.51l1.24-3 2.13.88zm10 .63l-1.25 3L5.47 32l1.24-3zm-1.78-2.36l-6.09-2.53 2.63-5.76a6.8 6.8 0 0 1 4.64-3.81l5.72-1.35a1.05 1.05 0 0 1 1.28.79 1.06 1.06 0 0 1-.78 1.27l-2.87.73.35 1.46 2.82-.72 4.55-1.08 4-3.28a4.26 4.26 0 0 1 4.45-.63l-10.4 8.48-8.61 2z"
  />
</svg>
