<svg xmlns="http://www.w3.org/2000/svg" width="40" height="32" viewBox="0 0 40 32">
  <path
    fill={{paragraph.field_icon_color.color}}
    d="M39.781 18.343c-1.026-4.123-5.203-6.657-9.366-5.684l-13.399 3.224a3.328 3.328 0 0 0-2.56 3.1l-3.741-2.268a3.381 3.381 0 0 0-4.522.977L5.11 17.04a3.37 3.37 0 0 0-4.615 1.1 3.32 3.32 0 0 0 1.108 4.583l11.708 7.502a8.67 8.67 0 0 0 4.496 1.235c.617 0 1.233-.064 1.837-.191L33.9 27.684a7.757 7.757 0 0 0 4.92-3.442 7.657 7.657 0 0 0 .96-5.9zm-29.878-.316l5.151 3.1c.047.026.1.042.146.063a3.38 3.38 0 0 0 1.91 1.162l-.874.326a2.555 2.555 0 0 1-2.15-.233L7.52 18.492a1.798 1.798 0 0 1 2.383-.465zm27.578 5.384a6.14 6.14 0 0 1-3.944 2.764L19.29 29.761a7.098 7.098 0 0 1-5.151-.883L2.43 21.39a1.773 1.773 0 0 1-.476-2.617 1.8 1.8 0 0 1 1.402-.685c.329.002.651.093.931.264l8.982 5.43a4.115 4.115 0 0 0 3.486.367l11.843-4.262a.774.774 0 0 0 .501-.96.781.781 0 0 0-.954-.523l-9.918 2.444a1.799 1.799 0 0 1-1.769-.475 1.768 1.768 0 0 1-.421-1.771 1.786 1.786 0 0 1 1.368-1.211L30.8 14.173c3.329-.798 6.68 1.229 7.493 4.531a6.055 6.055 0 0 1-.796 4.712l-.016-.005zM6.583 5.921a11.74 11.74 0 0 0 3.2 1.143.79.79 0 0 0 .453.16.77.77 0 0 0 .15-.026c3.206.604 6.464.892 9.726.858 5.77 0 10.985-.78 13.285-1.995a.767.767 0 0 0 .12-1.292L28.312.7a.79.79 0 0 0-.848-.078c-1.01.516-3.71 1.07-7.478 1.07-3.902 0-6.66-.585-7.566-1.122a.8.8 0 0 0-.895.062L6.48 4.656a.773.773 0 0 0 .094 1.266h.01zM27.7 2.208l3.804 2.96c-.595.194-1.2.354-1.811.481l-3.122-3.1a9.13 9.13 0 0 0 1.129-.341zm-12.806.666c1.68.253 3.375.375 5.073.367a33.483 33.483 0 0 0 4.808-.325c.023.044.051.086.084.124l2.955 2.94a53.316 53.316 0 0 1-7.711.516c-2.753.02-5.502-.18-8.222-.599l2.925-2.852a.7.7 0 0 0 .088-.17zm-2.794-.723c.338.14.686.256 1.04.346L10.075 5.54c-.614-.15-1.15-.304-1.603-.465l3.627-2.924zM6.583 8.562c2.18 1.297 7.493 2.134 13.53 2.134 5.77 0 10.984-.78 13.284-1.994a.774.774 0 0 0 .072-1.363.785.785 0 0 0-.8-.007c-2.082 1.085-7.109 1.814-12.557 1.814-6.567 0-11.125-.961-12.728-1.912a.789.789 0 0 0-1.072.269.765.765 0 0 0 .271 1.059zm0 2.64c1.525.91 4.652 1.612 8.58 1.938h.063a.78.78 0 0 0 .814-.742.778.778 0 0 0-.746-.808c-3.643-.3-6.604-.946-7.91-1.72a.785.785 0 0 0-.802-.04.774.774 0 0 0 .001 1.367v.005z"
  />
</svg>
