<svg data-name="Ebene 1" xmlns="http://www.w3.org/2000/svg" width="25.43" height="38.34">
  <path
    fill={{paragraph.field_icon_color.color}}
    d="M25.43 12.72a12.72 12.72 0 1 0-19.3 10.85l-5 10.59L7 33.3l3 5 3.2-6.77 3.19 6.77 3-5 5.82.86L20 23.12a12.73 12.73 0 0 0 5.43-10.4zm-23.93 0a11.22 11.22 0 1 1 11.22 11.21A11.23 11.23 0 0 1 1.5 12.72zm8.32 22.44l-2.1-3.49-4 .6 3.76-8a13.26 13.26 0 0 0 2.71.9l2.19 4.63zm12.85-2.89l-4-.6-2.1 3.49-4.61-9.77h.8a12.69 12.69 0 0 0 6-1.51zm-.92-19.55a9 9 0 1 0-9 9 9 9 0 0 0 9-9zm-16.57 0a7.53 7.53 0 0 1 13-5.17l-6.44 7.74-3.11-3.1-1.05 1.06 4.27 4.26 7.27-8.74a7.53 7.53 0 1 1-13.94 4z"
  />
</svg>
