<svg data-name="Ebene 1" xmlns="http://www.w3.org/2000/svg" width="37.5" height="35.6">
  <path
    fill={{paragraph.field_icon_color.color}}
    d="M18 4.76V9h1.5V4.76zm4.94 5.15l1.3.75L26.36 7l-1.3-.75zm-10.5-3.66l-1.3.75 2.12 3.66 1.3-.75zm10.83 7.68a1 1 0 0 0-1.14.27l-8.27 10.21a4.06 4.06 0 0 0-.5 3.39 4 4 0 0 0 2.74 2.73 4.29 4.29 0 0 0 1.16.17 4 4 0 0 0 2.17-.64 4.06 4.06 0 0 0 1.82-2.74L23.8 15a1 1 0 0 0-.53-1.07zm-3.49 13.12a2.57 2.57 0 0 1-3.27 2 2.54 2.54 0 0 1-1.71-1.7 2.58 2.58 0 0 1 .27-2.09l6.8-8.4zm7-13.87l.75 1.3 3.67-2.11-.75-1.3zm-16 0l-3.71-2.11-.75 1.3L10 14.48zM18.75 0a18.75 18.75 0 0 0-8.23 35.6l.66-1.35A17.25 17.25 0 1 1 36 18.75a17.17 17.17 0 0 1-9.58 15.46l.66 1.34A18.75 18.75 0 0 0 18.75 0zM4.83 19.43h4.23v-1.5H4.83zm27.84 0v-1.5h-4.23v1.5z"
  />
</svg>
