<svg data-name="Ebene 1" xmlns="http://www.w3.org/2000/svg" width="37.5" height="35.6" viewBox="0 0 38 36" id="performance">
  <style>
    #pointer {
      transform: rotate(-30deg);
      transform-origin: 50% 57%;
    }

    #performance:hover #pointer {
      animation: rotate 4s infinite linear;
    }

    @keyframes rotate {
      0% {
        transform: rotate(-30deg);
      }
      50% {
        transform: rotate(60deg);
      }
      100% {
        transform: rotate(-30deg);
      }
    }
  </style>
  <path
    fill={{paragraph.field_icon_color.color}}
    d="M 18.75,0 A 18.75,18.75 0 0 0 10.519531,35.599609 L 11.179688,34.25 A 17.25,17.25 0 1 1 36,18.75 17.17,17.17 0 0 1 26.419922,34.210938 l 0.660156,1.339843 A 18.75,18.75 0 0 0 18.75,0 Z M 18,4.7597656 V 9 h 1.5 V 4.7597656 Z M 12.439453,6.25 11.140625,7 l 2.119141,3.660156 1.300781,-0.7499998 z m 12.621094,0 -2.121094,3.6601562 1.300781,0.7499998 L 26.359375,7 Z m -17.9902345,4.820312 -0.75,1.298829 L 10,14.480469 10.779297,13.179688 Z m 23.3789065,0 -3.669922,2.109376 0.75,1.300781 3.669922,-2.111328 z M 4.8300781,17.929688 v 1.5 h 4.2304688 v -1.5 z m 23.6093749,0 v 1.5 h 4.230469 v -1.5 z"
  />
  <line
          x1="18.706644"
          y1="22.719923"
          x2="18.706644"
          y2="13.6515"
          id="pointer"
          stroke-width="3"
          stroke={{paragraph.field_icon_color.color}}
  />
</svg>
