<svg id="Ebene_1" data-name="Ebene 1" xmlns="http://www.w3.org/2000/svg" width="33.88" height="33.88" viewBox="0 0 33.88 33.88">
    <path
      fill={{paragraph.field_icon_color.color}}
      d="M16.94,0A16.94,16.94,0,1,0,33.88,16.94,17,17,0,0,0,16.94,0Zm0,32.38A15.44,15.44,0,1,1,32.38,16.94,15.46,15.46,0,0,1,16.94,32.38Zm0-7.94A7,7,0,0,1,10.16,19l-1.47.31A8.44,8.44,0,0,0,25.2,19.2l-1.47-.3A7,7,0,0,1,16.94,24.44Zm5.18-10.32a1.5,1.5,0,1,0-1.5-1.5A1.5,1.5,0,0,0,22.12,14.12Zm-10,0a1.5,1.5,0,1,0-1.5-1.5A1.5,1.5,0,0,0,12.12,14.12Z"
    />
</svg>
