<svg data-name="Ebene 1" xmlns="http://www.w3.org/2000/svg" width="37.5" height="34.58">
  <path
    fill={{paragraph.field_icon_color.color}}
    d="M37.5 14.37H36a2.18 2.18 0 0 1-1.19 1.93c-.07-.38-.15-.76-.26-1.15a11 11 0 0 0-5.87-7.3 14.11 14.11 0 0 0-1.93-.77 4.07 4.07 0 0 0 .05-.49 6.59 6.59 0 0 0-13.18 0v.73c-.46.14-.91.28-1.3.43A36.32 36.32 0 0 1 6 5.92l-1-.46-.16 1c0 .24-.83 5.16 1.43 7.08-1.37 1.21-3.8 3-5.56 3H0v6.8l.11.17a12 12 0 0 0 9.62 5.21v5.86h7.34v-3.89h5.31v3.89h7.34v-5.2A12.26 12.26 0 0 0 35 17.82a3.66 3.66 0 0 0 2.5-3.45zM20.21 1.5a5.1 5.1 0 0 1 5.09 5.09v.1a24.07 24.07 0 0 0-10.15.24v-.34a5.09 5.09 0 0 1 5.06-5.09zm8.4 26.81l-.39.21v4.56h-4.34v-3.89h-8.31v3.89h-4.34v-5.84h-.75a12.44 12.44 0 0 1-3.34-.45 4.29 4.29 0 0 0 2.45-3l-1.47-.28a3.38 3.38 0 0 1-3.24 2.39 10.15 10.15 0 0 1-3.38-3V18c3-.51 6.44-3.89 6.59-4l.91-.93-1.2-.38c-1.56-.52-1.69-3.26-1.56-5a51.32 51.32 0 0 0 6 1.6h.22l.2-.08C16 7.91 23.07 6.74 28 9.2a9.56 9.56 0 0 1 5.1 6.34c2.42 8.86-4.21 12.61-4.49 12.77zm-16.18-12a1 1 0 1 0 1 1 1 1 0 0 0-1-.99z"
  />
</svg>
